<?xml version="1.0" encoding="UTF-8" standalone="no"?>
<?xml-stylesheet type="text/css" href="./../../style.css"?>
<!-- Created with Inkscape (http://www.inkscape.org/) -->

<svg
   xmlns:dc="http://purl.org/dc/elements/1.1/"
   xmlns:cc="http://creativecommons.org/ns#"
   xmlns:rdf="http://www.w3.org/1999/02/22-rdf-syntax-ns#"
   xmlns:svg="http://www.w3.org/2000/svg"
   xmlns="http://www.w3.org/2000/svg"
   xmlns:sodipodi="http://sodipodi.sourceforge.net/DTD/sodipodi-0.dtd"
   xmlns:inkscape="http://www.inkscape.org/namespaces/inkscape"
   width="292mm"
   height="106mm"
   viewBox="0 0 292 106"
   version="1.1"
   id="svg4132"
   inkscape:version="0.92.2 (unknown)"
   sodipodi:docname="limousine_01.svg">
  <defs
     id="defs4126">
    <inkscape:path-effect
       effect="spiro"
       id="path-effect4846"
       is_visible="true" />
    <inkscape:path-effect
       effect="spiro"
       id="path-effect4842"
       is_visible="true" />
    <inkscape:path-effect
       effect="spiro"
       id="path-effect4837"
       is_visible="true" />
    <inkscape:path-effect
       effect="spiro"
       id="path-effect4830"
       is_visible="true" />
    <inkscape:path-effect
       effect="spiro"
       id="path-effect4790"
       is_visible="true" />
  </defs>
  <sodipodi:namedview
     id="base"
     pagecolor="#ffffff"
     bordercolor="#666666"
     borderopacity="1.0"
     inkscape:pageopacity="0.0"
     inkscape:pageshadow="2"
     inkscape:zoom="0.80023285"
     inkscape:cx="560.17085"
     inkscape:cy="203.77511"
     inkscape:document-units="mm"
     inkscape:current-layer="layer2"
     showgrid="false"
     inkscape:snap-global="false"
     inkscape:window-width="1366"
     inkscape:window-height="716"
     inkscape:window-x="0"
     inkscape:window-y="0"
     inkscape:window-maximized="1" />
  <metadata
     id="metadata4129">
    <rdf:RDF>
      <cc:Work
         rdf:about="">
        <dc:format>image/svg+xml</dc:format>
        <dc:type
           rdf:resource="http://purl.org/dc/dcmitype/StillImage" />
        <dc:title></dc:title>
      </cc:Work>
    </rdf:RDF>
  </metadata>
  <g
     inkscape:groupmode="layer"
     id="layer2"
     inkscape:label="Malebene"
     transform="translate(0,-104)">
    <g
       id="g4862"
       transform="matrix(0.89876582,0,0,0.89876582,-12.85896,80.541694)">
      <path class="car"
         sodipodi:nodetypes="ccssccscccssccccsccccccsccccscccccccccccccccccccccccc"
         inkscape:connector-curvature="0"
         transform="scale(0.26458333)"
         id="path4788"
         d="m 777.70592,118.50833 c -74.6508,-0.81158 -131.09592,10.48694 -194.5985,39.73581 -45.84151,21.2034 -86.88235,53.7474 -135.23437,68.3457 -39.25316,11.85121 -81.54478,8.81704 -122.14649,14.54102 -44.7398,6.30736 -89.68764,11.95414 -133.78125,21.8125 -28.80194,7.16807 -71.37976,13.6934 -87.24804,37.80664 -15.637347,24.75927 -19.695938,56.51976 -18.904301,85.79297 0.244788,9.05185 7.200127,17.1209 7.271484,26.17578 0.09082,11.5211 -8.724609,33.44531 -8.724609,33.44531 33.324576,11.41418 79.976566,15.99414 79.976566,15.99414 -1.51521,-27.95629 -5.5747,-60.61987 6.15429,-83.25195 18.92803,-36.52326 44.93299,-58.15625 87.00782,-58.15625 41.51045,0 60.41869,9.10464 87.27343,38.76758 21.55982,32.18659 21.57006,53.60148 21.68946,102.64062 185.19356,-5.03119 415.13377,-4.36132 545.29882,-4.36132 1.65056,-29.10618 3.894,-66.24644 24.86524,-97.02735 16.36244,-21.24227 47.11344,-40.84387 83.87303,-40.60742 36.7596,0.23646 57.4357,15.43739 82.586,47.57227 7.1592,17.54783 19.3111,33.26276 16.6171,82.79101 61.5701,-11.38639 104.4951,-15.13339 139.5977,-21.8125 10.8583,-2.06604 6.991,-21.07394 8.7246,-31.99023 5.4227,-54.63617 3.9038,-144.30046 -31.9922,-173.04102 -7.408,-5.47139 -18.451,0.78524 -27.6269,0 -28.4242,-2.43241 -56.4259,-8.65583 -84.3399,-14.54297 -7.822,-1.64968 -15.7942,-2.97837 -23.2676,-5.8164 -23.5107,-8.92833 -44.3165,-23.80921 -66.8886,-34.89844 -73.65687,-42.38029 -153.8478,-49.9155 -256.18278,-49.9155 z m 4.20619,27.56784 c 12.49856,0.12539 24.66888,0.33123 36.51172,0.74024 11.84283,0.40901 23.35958,1.02041 34.54883,1.95898 16.2567,1.38275 33.33995,3.70747 48.15234,6.8418 5.10642,1.09702 10.13195,2.3217 15.07617,3.68945 l -8.59961,80.04297 -134.28906,3.30859 z m -29.16602,0.54297 -35.28906,99.82813 -246.52539,18.03515 c 14.26165,-11.42168 28.52668,-22.17186 42.50781,-31.94531 19.09047,-13.29568 39.93292,-26.20307 58.90821,-36.43945 17.5506,-9.3922 36.66031,-18.08803 53.91211,-24.63477 16.36906,-6.14692 34.06001,-11.39883 49.85742,-15.04883 15.49947,-3.52434 32.07355,-6.12187 46.73828,-7.67773 10.24128,-1.0485 20.32099,-1.7257 29.89062,-2.11719 z m 177.34571,17.97852 c 13.49634,7.37282 22.90915,13.92658 33.54882,20.74609 9.98781,6.4669 19.59492,12.85566 28.36719,19.83203 5.37308,4.45111 10.30689,8.62487 14.40819,13.66211 2.0643,2.61223 3.9103,5.34025 4.9824,8.29297 0.8534,2.49213 1.1176,5.13172 0.4434,7.49023 -0.3444,1.17472 -0.9074,2.31154 -1.7051,3.40625 l -87.32029,0.66016 z"
         style="opacity:1;fill:currentColor;fill-rule:evenodd;stroke:none;stroke-width:3.77952766;stroke-linecap:butt;stroke-linejoin:miter;stroke-miterlimit:4;stroke-dasharray:none;stroke-opacity:1" />
      <circle
         r="22.793648"
         cy="113.96519"
         cx="69.554558"
         id="path4796"
         style="opacity:1;fill:#000000;fill-opacity:1;fill-rule:nonzero;stroke:none;stroke-width:1.13931561;stroke-linecap:round;stroke-linejoin:round;stroke-miterlimit:4;stroke-dasharray:none;stroke-dashoffset:0;stroke-opacity:1" />
      <circle
         r="22.793648"
         cy="113.96519"
         cx="268.89746"
         id="path4796-5"
         style="opacity:1;fill:#000000;fill-opacity:1;fill-rule:nonzero;stroke:none;stroke-width:1.13900006;stroke-linecap:round;stroke-linejoin:round;stroke-miterlimit:4;stroke-dasharray:none;stroke-dashoffset:0;stroke-opacity:1" />
    </g>
  </g>
</svg>
